<?xml version="1.0" encoding="utf-8"?>
<svg xmlns="http://www.w3.org/2000/svg" viewBox="187.8424 246.9563 583.5418 454.4405" width="583.542px" height="454.44px">
  <path fill="#FAFBFA" opacity="1.000000" stroke="none" d=" M188.998291,636.177612 C194.459229,624.581848 199.341736,613.111694 205.369537,602.278687 C244.156387,532.572571 283.082855,462.943329 322.237610,393.443237 C330.613617,378.575775 342.906677,368.157410 360.761322,366.700531 C382.748810,364.906403 403.189575,387.498901 399.047760,408.815186 C398.460297,411.838684 397.179077,414.866302 395.618408,417.541626 C344.780518,504.689087 293.898071,591.810608 242.891983,678.859619 C240.007584,683.782227 238.154510,688.593994 238.783264,694.326294 C239.005997,696.356934 238.638290,698.452209 238.498398,701.396790 C236.219147,700.296570 234.576538,699.868713 233.404938,698.881836 C221.333694,688.713745 209.215668,678.595215 197.360825,668.178162 C187.639862,659.636230 186.452682,648.539185 188.998291,636.177612 z" transform="matrix(0.9999999999999999, 0, 0, 1, 0, 0)"/>
  <path fill="#FCFDFD" opacity="1.000000" stroke="none" d=" M310.983948,634.011230 C320.741180,618.927124 335.639862,614.296448 351.892151,613.134705 C363.836029,612.280884 375.867828,612.653809 387.860535,612.488342 C389.636749,612.463867 391.413605,612.484985 393.077148,612.484985 C395.884155,594.538025 386.006439,581.925781 368.406372,579.993103 C355.414001,578.566345 342.868591,580.614685 330.494293,584.406555 C321.863739,587.051086 317.047089,585.546692 314.978485,579.717346 C312.803375,573.587830 315.787262,568.885681 324.036438,565.752869 C342.262665,558.830933 360.934998,555.453552 380.301910,559.818604 C399.869293,564.228821 414.970337,580.607788 415.757416,600.606628 C416.785492,626.728882 416.270294,652.916382 416.174316,679.074890 C416.152496,685.025085 410.847321,689.250244 404.692444,689.165466 C398.754028,689.083740 394.328857,684.992432 393.787476,679.014282 C393.609863,677.053101 393.580780,675.078430 393.438873,672.198181 C391.247009,673.949036 389.627228,675.234924 388.015808,676.531250 C372.331726,689.148254 354.430786,693.415894 335.010376,688.940552 C309.385101,683.035339 298.465912,657.720276 310.983948,634.011230 M366.306305,669.067139 C376.205933,666.405273 384.467651,660.998474 391.637909,653.822021 C392.521851,652.937317 393.558929,651.673157 393.591064,650.557861 C393.776703,644.119080 393.681610,637.672119 393.681610,631.360657 C380.141815,631.360657 367.185516,631.098816 354.249908,631.502075 C349.695282,631.644043 345.061249,633.032837 340.692017,634.522583 C332.108734,637.449036 328.436035,642.933228 328.721619,651.337769 C329.014679,659.963257 333.991882,667.414368 342.300842,668.742249 C349.860657,669.950439 357.739471,669.162659 366.306305,669.067139 z" transform="matrix(0.9999999999999999, 0, 0, 1, 0, 0)"/>
  <path fill="#FCFDFD" opacity="1.000000" stroke="none" d=" M669.347412,576.851318 C669.632202,572.371521 671.175354,569.079956 675.199036,567.374390 C694.460938,559.208984 714.336609,555.194458 735.114746,559.808044 C755.379333,564.307495 770.213440,581.212891 770.879883,601.948364 C771.698425,627.416626 771.293030,652.927429 771.215454,678.419250 C771.196045,684.781067 766.143005,689.190063 759.830688,689.164917 C753.502258,689.139709 749.037170,684.742249 748.716064,678.162781 C748.636169,676.526489 748.704041,674.882996 748.704041,671.974915 C746.539917,673.709473 745.217651,674.737793 743.929199,675.806885 C728.459595,688.643250 710.680298,693.210510 691.151978,689.201294 C672.893311,685.452759 661.787231,672.658203 660.983032,656.106873 C660.084717,637.619019 669.592407,622.663940 687.527527,617.316772 C697.424744,614.366028 708.052368,613.452271 718.430420,612.647156 C728.178467,611.890808 738.031189,612.485107 747.716614,612.485107 C752.317810,596.499939 741.117676,581.943542 723.336121,579.974487 C709.456909,578.437500 696.192261,581.122070 683.015869,585.059143 C675.440552,587.322632 671.375305,584.834473 669.347412,576.851318 M701.074585,669.904236 C718.942383,672.603760 733.760010,666.513550 746.337280,654.103760 C747.338501,653.115845 748.534729,651.715332 748.578308,650.469360 C748.803772,644.037048 748.682983,637.592590 748.682983,631.218933 C735.405884,631.218933 722.755859,630.829590 710.149170,631.398560 C704.625061,631.647888 699.003052,633.351807 693.760071,635.297119 C687.066895,637.780579 683.683838,643.078613 683.689087,650.412903 C683.696228,660.514221 688.876709,666.650879 701.074585,669.904236 z" transform="matrix(0.9999999999999999, 0, 0, 1, 0, 0)"/>
  <path fill="#F9FAFA" opacity="1.000000" stroke="none" d=" M223.941467,491.231018 C218.354141,454.270538 211.951218,417.928101 201.597305,382.386078 C201.149628,380.849335 202.034927,377.874542 203.271027,377.078400 C208.662735,373.605743 214.110184,369.789398 220.101151,367.771820 C230.791168,364.171753 240.037018,368.215790 247.784714,375.819427 C259.881744,387.691650 266.354431,402.842560 271.968964,418.397064 C274.562775,425.583099 278.814667,433.165894 278.222565,440.225616 C277.634827,447.232697 272.037292,453.879486 268.409180,460.560608 C256.511810,482.469269 244.514465,504.323639 232.539658,526.190186 C231.919022,527.323547 231.150940,528.376160 229.633301,530.741638 C227.625549,516.858826 225.804016,504.263641 223.941467,491.231018 z" transform="matrix(0.9999999999999999, 0, 0, 1, 0, 0)"/>
  <path fill="#FCFDFD" opacity="1.000000" stroke="none" d=" M521.027649,657.606934 C523.294189,648.985535 521.623108,644.783691 513.588013,641.970032 C504.828949,638.902893 495.712097,636.870972 486.802917,634.214478 C480.759857,632.412537 474.659424,630.669067 468.837677,628.282349 C445.144714,618.569031 439.315247,590.333801 456.914795,571.552368 C465.718231,562.157715 477.126038,559.062317 489.319427,558.182251 C503.606842,557.150940 517.551025,559.262634 531.085693,563.966125 C537.354248,566.144531 540.610229,571.717773 538.784058,577.019409 C536.893555,582.507874 531.298035,584.862366 524.801575,582.904175 C511.867676,579.005554 498.663361,577.074341 485.406494,580.233154 C480.660522,581.363953 475.782410,584.222900 472.241974,587.623108 C466.152374,593.471497 467.750366,603.658386 475.526794,606.814514 C485.148651,610.719666 495.366608,613.221313 505.427307,615.961121 C515.113770,618.599121 524.775085,621.354004 532.653931,627.816467 C552.098694,643.765564 546.160950,676.291504 521.775513,685.891785 C502.661560,693.416687 483.219940,691.563660 464.061676,685.350098 C460.131500,684.075378 456.353790,682.251526 452.637421,680.414551 C446.582550,677.421631 444.469299,672.186951 446.954437,666.953979 C449.560272,661.466858 454.633453,659.569214 460.786011,662.283264 C474.190491,668.196411 488.104156,670.620667 502.677063,668.995667 C510.421783,668.132202 517.397095,665.885071 521.027649,657.606934 z" transform="matrix(0.9999999999999999, 0, 0, 1, 0, 0)"/>
  <path fill="#FBFDFD" opacity="1.000000" stroke="none" d=" M574.067871,558.075623 C580.871338,551.422974 587.294067,544.877380 594.067505,538.717346 C595.783508,537.156677 599.091858,535.609314 600.799744,536.277344 C602.433228,536.916138 603.631104,540.395142 603.798950,542.714172 C604.215820,548.474304 603.935974,554.284851 603.935974,560.489990 C613.432007,560.489990 622.396240,560.401794 631.357666,560.520264 C637.576416,560.602539 641.249756,563.691589 641.896606,568.983887 C642.646301,575.116638 638.432007,579.885620 631.884644,579.973633 C622.755676,580.096375 613.623840,580.004578 604.679504,580.004578 C604.328369,580.629883 604.040710,580.903076 604.040405,581.176636 C604.011353,606.499756 603.908203,631.823364 604.049072,657.145630 C604.096741,665.723877 608.013062,669.823730 616.456787,670.113281 C621.196655,670.275696 626.051819,669.728760 630.715515,668.800415 C636.923218,667.564636 642.055176,669.353882 643.697510,674.097534 C645.492065,679.281006 642.838379,684.236450 636.839233,686.696960 C624.590027,691.720947 612.057556,691.639038 599.662842,687.756042 C587.554199,683.962769 581.212280,673.482300 581.107117,657.756775 C580.950012,634.265747 581.063660,610.772949 581.062134,587.280884 C581.062012,585.117188 581.062134,582.953430 581.062134,580.006226 C575.550537,580.006226 570.123962,580.205566 564.726257,579.898376 C562.831970,579.790588 559.672119,578.712219 559.444092,577.596008 C559.029053,575.565186 559.732788,572.614746 561.106689,571.040466 C565.038208,566.535645 569.539795,562.528503 574.067871,558.075623 z" transform="matrix(0.9999999999999999, 0, 0, 1, 0, 0)"/>
  <path fill="#F8CD0E" opacity="1.000000" stroke="none" d=" M369.259033,268.261658 C373.694519,270.011749 377.999023,271.384216 381.717316,273.698456 C385.554626,276.086700 386.262421,280.963379 383.956085,285.261749 C372.574860,306.472839 361.160431,327.666504 349.659058,348.812592 C346.559967,354.510498 342.061859,355.791199 336.267883,352.992554 C334.475983,352.127014 332.696838,351.209503 331.007660,350.161438 C325.892120,346.987396 324.591522,342.769531 327.437286,337.427734 C337.272369,318.966339 347.230621,300.570526 357.149841,282.153992 C358.567383,279.522125 359.665527,276.603638 361.567383,274.378418 C363.596161,272.004822 366.403290,270.296417 369.259033,268.261658 z" transform="matrix(0.9999999999999999, 0, 0, 1, 0, 0)"/>
  <path fill="#F9CD0E" opacity="1.000000" stroke="none" d=" M257.469910,350.502777 C255.683746,351.467865 254.214767,352.242279 252.730164,352.985504 C247.180237,355.763733 242.559158,354.627136 239.633087,349.264465 C228.022186,327.984772 216.492783,306.659973 205.068329,285.279663 C202.194641,279.901733 203.818680,275.348175 209.187973,272.234375 C210.623047,271.402130 212.122269,270.677795 213.608383,269.936737 C219.865509,266.816559 223.942245,267.913422 227.288956,274.038422 C237.160309,292.104492 246.907028,310.238617 256.697906,328.348633 C258.198059,331.123444 259.705627,333.895020 261.154297,336.696747 C264.256073,342.695587 263.388123,346.135925 257.469910,350.502777 z" transform="matrix(0.9999999999999999, 0, 0, 1, 0, 0)"/>
  <path fill="#F9CD0E" opacity="1.000000" stroke="none" d=" M304.444977,250.832047 C305.157593,253.383896 306.005341,255.622620 306.014709,257.864868 C306.112152,281.166046 306.088684,304.467773 306.067200,327.769348 C306.059540,336.079895 302.957733,338.832092 293.756317,338.839233 C284.428741,338.846466 281.082642,335.903107 281.074219,327.533752 C281.050873,304.398651 281.051422,281.263489 281.074280,258.128357 C281.082123,250.210754 284.341034,247.037567 292.340332,246.995361 C296.648102,246.972641 301.125580,246.370514 304.444977,250.832047 z" transform="matrix(0.9999999999999999, 0, 0, 1, 0, 0)"/>
</svg>